<svg xmlns="http://www.w3.org/2000/svg" width="131" height="130" fill="none"><g clip-path="url(#a)"><rect x=".5" width="130" height="130" rx="65" fill="#FF6C62"/><rect x=".5" width="130" height="130" rx="65" fill="url(#b)"/><g filter="url(#c)"><path d="M169.881 20.96V132H40.217C43.8 69.788 95.478 20.442 158.704 20.442c3.769 0 7.497.176 11.177.519z" fill="url(#d)"/></g><path d="M101.501 41.563c0-5.834-4.729-10.563-10.562-10.563H27.563C21.729 31 17 35.73 17 41.563v142.596c0 5.833 4.73 10.562 10.563 10.562h63.376c5.833 0 10.562-4.729 10.562-10.562V41.563z" fill="#E7E5E0"/><path d="M97.98 41.596a6.887 6.887 0 0 0-6.887-6.887H27.408a6.887 6.887 0 0 0-6.887 6.887v128.821a6.887 6.887 0 0 0 6.887 6.887h63.685a6.887 6.887 0 0 0 6.887-6.887V41.596z" fill="#fff"/><path d="M32.894 64.68c0-1.923 1.318-3.482 2.943-3.482h33.848c1.625 0 2.943 1.559 2.943 3.482v5.222c0 1.923-1.318 3.481-2.943 3.481H35.837c-1.625 0-2.943-1.558-2.943-3.481V64.68z" fill="#E5E7E9"/><path d="M34.802 77.401a4.401 4.401 0 1 1-8.802 0 4.401 4.401 0 0 1 8.802 0z" fill="#FFB4AF"/><path d="M32.844 98.63a3.52 3.52 0 0 1 3.521-3.52h40.49a3.52 3.52 0 0 1 3.521 3.52v12.324a3.52 3.52 0 0 1-3.52 3.521H36.364a3.52 3.52 0 0 1-3.52-3.521V98.631z" fill="#E5E7E9"/><path d="M34.604 118.401a4.4 4.4 0 1 1-8.801 0 4.4 4.4 0 0 1 8.801 0z" fill="#FFB4AF"/><path d="M93 81.429C93 79.535 91.408 78 89.444 78H48.555C46.593 78 45 79.535 45 81.429v5.142C45 88.465 46.592 90 48.556 90h40.888C91.408 90 93 88.465 93 86.571V81.43z" fill="#CBDEF0"/><path d="M92.699 131.191a3.52 3.52 0 0 0-3.52-3.521H48.687a3.52 3.52 0 0 0-3.521 3.521v24.646a3.52 3.52 0 0 0 3.52 3.521h40.491a3.52 3.52 0 0 0 3.52-3.521v-24.646z" fill="#fff"/><path d="M39.251 34.709h40.794v2.119a4.238 4.238 0 0 1-4.238 4.238H43.49a4.238 4.238 0 0 1-4.239-4.238v-2.12z" fill="#E7E5E0"/><g filter="url(#e)"><rect x="54" y="48" width="59.203" height="59.203" rx="29.602" fill="#fff"/></g><path fill-rule="evenodd" clip-rule="evenodd" d="M84 60c-10.14 0-18 7.427-18 17.46 0 5.247 2.15 9.782 5.653 12.914.294.263.471.632.484 1.026l.098 3.202a1.44 1.44 0 0 0 2.02 1.273l3.573-1.577c.303-.133.642-.158.961-.07 1.642.451 3.39.692 5.211.692 10.14 0 18-7.428 18-17.46C102 67.427 94.14 60 84 60z" fill="url(#f)"/><path fill-rule="evenodd" clip-rule="evenodd" d="m73.191 82.566 5.288-8.389a2.7 2.7 0 0 1 3.904-.72l4.205 3.154c.386.29.917.288 1.301-.004l5.68-4.31c.758-.576 1.747.332 1.24 1.137l-5.287 8.388a2.7 2.7 0 0 1-3.905.72l-4.205-3.153a1.08 1.08 0 0 0-1.301.003l-5.68 4.31c-.758.576-1.747-.331-1.24-1.136z" fill="#fff"/></g><defs><linearGradient id="b" x1="65.5" y1="0" x2="65.5" y2="130" gradientUnits="userSpaceOnUse"><stop stop-color="#E65952"/><stop offset="1" stop-color="#CE3D3B"/></linearGradient><linearGradient id="d" x1="105.049" y1="20.442" x2="105.049" y2="132" gradientUnits="userSpaceOnUse"><stop stop-color="#EC554F"/><stop offset="1" stop-color="#DB4A47"/></linearGradient><filter id="c" x="-3.004" y="8.761" width="204.425" height="186.319" filterUnits="userSpaceOnUse" color-interpolation-filters="sRGB"><feFlood flood-opacity="0" result="BackgroundImageFix"/><feColorMatrix in="SourceAlpha" values="0 0 0 0 0 0 0 0 0 0 0 0 0 0 0 0 0 0 127 0" result="hardAlpha"/><feOffset dx="-5.841" dy="25.699"/><feGaussianBlur stdDeviation="18.69"/><feColorMatrix values="0 0 0 0 0 0 0 0 0 0 0 0 0 0 0 0 0 0 0.2 0"/><feBlend in2="BackgroundImageFix" result="effect1_dropShadow_129_7199"/><feBlend in="SourceGraphic" in2="effect1_dropShadow_129_7199" result="shape"/></filter><filter id="e" x="32.277" y="37.139" width="102.649" height="102.649" filterUnits="userSpaceOnUse" color-interpolation-filters="sRGB"><feFlood flood-opacity="0" result="BackgroundImageFix"/><feColorMatrix in="SourceAlpha" values="0 0 0 0 0 0 0 0 0 0 0 0 0 0 0 0 0 0 127 0" result="hardAlpha"/><feMorphology radius="10.861" in="SourceAlpha" result="effect1_dropShadow_129_7199"/><feOffset dy="10.861"/><feGaussianBlur stdDeviation="16.292"/><feColorMatrix values="0 0 0 0 0 0 0 0 0 0 0 0 0 0 0 0 0 0 0.58 0"/><feBlend in2="BackgroundImageFix" result="effect1_dropShadow_129_7199"/><feBlend in="SourceGraphic" in2="effect1_dropShadow_129_7199" result="shape"/></filter><radialGradient id="f" cx="0" cy="0" r="1" gradientUnits="userSpaceOnUse" gradientTransform="matrix(39.2255 0 0 39.2254 72.93 95.807)"><stop stop-color="#09F"/><stop offset=".61" stop-color="#A033FF"/><stop offset=".935" stop-color="#FF5280"/><stop offset="1" stop-color="#FF7061"/></radialGradient><clipPath id="a"><rect x=".5" width="130" height="130" rx="65" fill="#fff"/></clipPath></defs></svg>